<svg width="36" height="32" viewBox="0 0 36 32" fill="none" xmlns="http://www.w3.org/2000/svg">
<g id="Notifications">
<g id="bell">
<path d="M20.8028 22.6852C20.8028 24.2398 19.3724 25.5 17.608 25.5C15.8436 25.5 14.4133 24.2398 14.4133 22.6852H20.8028Z" stroke="#4E46B4"/>
<path d="M25.3681 22.6852H10.2587C9.33301 22.6852 8.88354 22.0021 8.97375 21.2236C8.99523 21.0383 9.07994 20.8651 9.18278 20.7036L10.5873 18.4976C10.8972 18.0108 11.0902 17.4705 11.1538 16.9119L11.4928 13.9339C11.5229 13.6695 11.5657 13.4075 11.6509 13.1531C11.9554 12.2443 12.9432 9.96741 15.4173 9.02724V8.61111C15.4173 7.44518 16.4901 6.5 17.8134 6.5C19.1367 6.5 20.2094 7.44518 20.2094 8.61111V9.02725C22.6007 9.93595 23.6036 12.0933 23.9429 13.0573C24.0545 13.3742 24.1031 13.7033 24.1316 14.0349L24.3696 16.8057C24.4235 17.4326 24.6401 18.0391 25.0019 18.5762L26.4228 20.6855C26.5396 20.8589 26.6353 21.0467 26.6557 21.2487C26.7335 22.0167 26.2838 22.6852 25.3681 22.6852Z" stroke="#4E46B4"/>
</g>
</g>
</svg>
